<?xml version="1.0" encoding="utf-8"?>
<!-- Generator: Adobe Illustrator 16.0.0, SVG Export Plug-In . SVG Version: 6.00 Build 0)  -->
<!DOCTYPE svg PUBLIC "-//W3C//DTD SVG 1.1//EN" "http://www.w3.org/Graphics/SVG/1.1/DTD/svg11.dtd">
<svg version="1.1" id="Layer_1" xmlns="http://www.w3.org/2000/svg" xmlns:xlink="http://www.w3.org/1999/xlink" x="0px" y="0px"
	 width="112px" height="112px" viewBox="0 0 112 112" enable-background="new 0 0 112 112" xml:space="preserve">
<title>Facebook icon</title>
<path fill="#FFFFFF" d="M105.821,0H6.179C2.768,0,0,2.768,0,6.179v99.643C0,109.237,2.768,112,6.179,112h53.639V68.628H45.215V51.73
	h14.602V39.247c0-14.462,8.839-22.33,21.742-22.33c6.183,0,11.499,0.453,13.048,0.658v15.12h-8.965c-7,0-8.363,3.365-8.363,8.265
	v10.785h16.727l-2.17,16.939H77.279V112h28.537c3.421,0,6.184-2.763,6.184-6.179V6.179C112,2.768,109.237,0,105.821,0"/>
</svg>
