<?xml version="1.0" encoding="utf-8"?>
<!-- Generator: Adobe Illustrator 16.0.0, SVG Export Plug-In . SVG Version: 6.00 Build 0)  -->
<!DOCTYPE svg PUBLIC "-//W3C//DTD SVG 1.1//EN" "http://www.w3.org/Graphics/SVG/1.1/DTD/svg11.dtd">
<svg version="1.1" id="Layer_1" xmlns="http://www.w3.org/2000/svg" xmlns:xlink="http://www.w3.org/1999/xlink" x="0px" y="0px"
	 width="112px" height="112px" viewBox="0 0 112 112" enable-background="new 0 0 112 112" xml:space="preserve">
<title>YouTube icon</title>
<path fill="#FFFFFF" d="M109.644,28.957c-1.319-4.729-5.015-8.424-9.744-9.744c-8.727-2.338-43.848-2.338-43.848-2.338
	s-35.033-0.046-43.848,2.338c-4.729,1.319-8.424,5.015-9.744,9.744c-1.654,8.935-2.47,18.004-2.436,27.09
	c-0.027,9.052,0.788,18.086,2.436,26.987c1.32,4.729,5.015,8.424,9.744,9.743c8.718,2.344,43.848,2.344,43.848,2.344
	s35.028,0,43.848-2.344c4.729-1.319,8.425-5.015,9.744-9.743c1.613-8.904,2.395-17.938,2.333-26.987
	C112.045,46.964,111.264,37.895,109.644,28.957L109.644,28.957z M44.842,72.805V39.237l29.232,16.81L44.842,72.805z"/>
</svg>
