<?xml version="1.0" encoding="utf-8"?>
<!-- Generator: Adobe Illustrator 16.0.0, SVG Export Plug-In . SVG Version: 6.00 Build 0)  -->
<!DOCTYPE svg PUBLIC "-//W3C//DTD SVG 1.1//EN" "http://www.w3.org/Graphics/SVG/1.1/DTD/svg11.dtd">
<svg version="1.1" id="Layer_1" xmlns="http://www.w3.org/2000/svg" xmlns:xlink="http://www.w3.org/1999/xlink" x="0px" y="0px"
	 width="112px" height="112px" viewBox="0 0 112 112" enable-background="new 0 0 112 112" xml:space="preserve">
<title>Instagram icon</title>
<path fill="#FFFFFF" d="M56,0C40.787,0,38.887,0.07,32.914,0.336C26.95,0.616,22.89,1.554,19.32,2.94
	c-3.682,1.428-6.809,3.346-9.921,6.458c-3.112,3.113-5.035,6.235-6.458,9.921c-1.386,3.57-2.329,7.63-2.604,13.594
	C0.056,38.887,0,40.787,0,56c0,15.213,0.07,17.113,0.336,23.086c0.28,5.959,1.218,10.023,2.604,13.594
	c1.428,3.678,3.346,6.809,6.458,9.922c3.113,3.107,6.235,5.035,9.921,6.459c3.575,1.381,7.635,2.328,13.594,2.604
	C38.887,111.943,40.787,112,56,112c15.213,0,17.113-0.07,23.086-0.336c5.959-0.28,10.023-1.223,13.594-2.604
	c3.678-1.429,6.809-3.352,9.922-6.459c3.107-3.113,5.035-6.23,6.459-9.922c1.381-3.57,2.328-7.635,2.604-13.594
	C111.943,73.113,112,71.213,112,56c0-15.213-0.07-17.113-0.336-23.086c-0.28-5.959-1.223-10.029-2.604-13.594
	c-1.429-3.682-3.352-6.809-6.459-9.921c-3.113-3.112-6.23-5.035-9.922-6.458c-3.57-1.386-7.635-2.329-13.594-2.604
	C73.113,0.056,71.213,0,56,0z M56,10.08c14.947,0,16.73,0.075,22.633,0.331c5.461,0.257,8.424,1.162,10.393,1.937
	c2.623,1.013,4.48,2.226,6.449,4.181c1.956,1.96,3.17,3.822,4.182,6.445c0.766,1.969,1.681,4.933,1.928,10.393
	c0.266,5.908,0.326,7.681,0.326,22.633s-0.069,16.73-0.345,22.633c-0.284,5.461-1.194,8.424-1.965,10.393
	c-1.046,2.623-2.235,4.48-4.195,6.45c-1.955,1.955-3.845,3.169-6.44,4.181c-1.959,0.766-4.97,1.681-10.43,1.928
	c-5.945,0.266-7.695,0.326-22.675,0.326c-14.984,0-16.734-0.069-22.675-0.345c-5.464-0.284-8.475-1.194-10.435-1.965
	c-2.655-1.046-4.48-2.235-6.436-4.195c-1.964-1.955-3.22-3.845-4.2-6.44c-0.77-1.959-1.675-4.97-1.96-10.43
	C9.945,72.655,9.87,70.84,9.87,55.93c0-14.915,0.075-16.735,0.285-22.685c0.285-5.46,1.19-8.465,1.96-10.425
	c0.98-2.66,2.235-4.48,4.2-6.444c1.956-1.956,3.78-3.215,6.436-4.191c1.96-0.774,4.905-1.685,10.365-1.964
	c5.95-0.21,7.7-0.28,22.675-0.28L56,10.08z M56,27.244c-15.89,0-28.756,12.88-28.756,28.756c0,15.891,12.88,28.756,28.756,28.756
	c15.891,0,28.756-12.88,28.756-28.756C84.756,40.11,71.876,27.244,56,27.244z M56,74.666c-10.313,0-18.667-8.353-18.667-18.666
	S45.687,37.333,56,37.333S74.666,45.687,74.666,56S66.313,74.666,56,74.666z M92.615,26.11c0,3.71-3.016,6.72-6.721,6.72
	c-3.71,0-6.72-3.015-6.72-6.72c0-3.705,3.015-6.715,6.72-6.715C89.596,19.39,92.615,22.405,92.615,26.11z"/>
</svg>
