<?xml version="1.0" encoding="utf-8"?>
<!-- Generator: Adobe Illustrator 16.0.0, SVG Export Plug-In . SVG Version: 6.00 Build 0)  -->
<!DOCTYPE svg PUBLIC "-//W3C//DTD SVG 1.1//EN" "http://www.w3.org/Graphics/SVG/1.1/DTD/svg11.dtd">
<svg version="1.1" id="Layer_1" xmlns="http://www.w3.org/2000/svg" xmlns:xlink="http://www.w3.org/1999/xlink" x="0px" y="0px"
	 width="112px" height="112px" viewBox="0 0 112 112" enable-background="new 0 0 112 112" xml:space="preserve">
<title>Twitter icon</title>
<path fill="#FFFFFF" d="M111.785,21.322c-4.13,1.815-8.54,3.052-13.184,3.617c4.732-2.851,8.373-7.345,10.094-12.707
	c-4.438,2.59-9.355,4.475-14.592,5.525c-4.182-4.476-10.141-7.275-16.758-7.275c-12.68,0-22.96,10.281-22.96,22.946
	c0,1.82,0.21,3.57,0.593,5.246C35.891,37.772,18.975,28.606,7.653,14.751c-1.993,3.369-3.108,7.285-3.108,11.55
	c0,7.98,4.06,14.994,10.21,19.115c-3.766-0.121-7.308-1.157-10.397-2.875v0.285c0,11.13,7.9,20.412,18.415,22.525
	c-1.927,0.519-3.962,0.799-6.048,0.799c-1.466,0-2.87-0.141-4.275-0.402c2.945,9.115,11.41,15.76,21.485,15.947
	c-7.84,6.154-17.775,9.822-28.476,9.822c-1.82,0-3.635-0.107-5.46-0.312c10.215,6.506,22.25,10.309,35.266,10.309
	c42.251,0,65.329-34.98,65.329-65.268c0-0.976,0-1.96-0.07-2.94c4.485-3.215,8.4-7.28,11.48-11.891L111.785,21.322L111.785,21.322z"
	/>
</svg>
