<?xml version="1.0" encoding="utf-8"?>
<!-- Generator: Adobe Illustrator 16.0.0, SVG Export Plug-In . SVG Version: 6.00 Build 0)  -->
<!DOCTYPE svg PUBLIC "-//W3C//DTD SVG 1.1//EN" "http://www.w3.org/Graphics/SVG/1.1/DTD/svg11.dtd">
<svg version="1.1" id="Layer_1" xmlns="http://www.w3.org/2000/svg" xmlns:xlink="http://www.w3.org/1999/xlink" x="0px" y="0px"
	 width="112px" height="112px" viewBox="0 0 112 112" enable-background="new 0 0 112 112" xml:space="preserve">
<title>LinkedIn icon</title>
<path fill="#FFFFFF" d="M95.42,95.443H78.834V69.454c0-6.197-0.126-14.173-8.643-14.173c-8.647,0-9.969,6.743-9.969,13.715v26.447
	H43.638V42H59.57v7.285h0.215c2.226-4.2,7.639-8.633,15.727-8.633c16.805,0,19.912,11.06,19.912,25.456v29.336H95.42z
	 M24.906,34.688c-5.339,0-9.627-4.321-9.627-9.637c0-5.311,4.293-9.627,9.627-9.627c5.32,0,9.632,4.317,9.632,9.627
	C34.538,30.366,30.221,34.688,24.906,34.688z M33.222,95.443H16.59V42h16.632V95.443z M103.717,0H8.265C3.696,0,0,3.612,0,8.069
	v95.863C0,108.393,3.696,112,8.265,112h95.438c4.563,0,8.297-3.607,8.297-8.068V8.069C112,3.612,108.267,0,103.703,0H103.717z"/>
</svg>
