<?xml version="1.0" standalone="no"?><!-- Generator: Gravit.io --><svg xmlns="http://www.w3.org/2000/svg" xmlns:xlink="http://www.w3.org/1999/xlink" style="isolation:isolate" viewBox="0 0 180 180" width="180" height="180"><defs><clipPath id="_clipPath_5KwgOnxaPGc0QwVPxyJa96HQDq14pCIo"><rect width="180" height="180"/></clipPath></defs><g clip-path="url(#_clipPath_5KwgOnxaPGc0QwVPxyJa96HQDq14pCIo)"><path d=" M 42.188 13.754 C 16.852 29.684 0 57.89 0 90 C 0 122.11 16.852 150.316 42.188 166.246 L 42.188 104.102 L 42.188 75.977 L 42.188 25.352 L 42.188 13.754 Z " fill="rgb(0,37,84)"/><path d=" M 119.565 4.983 C 154.735 17.221 180 50.683 180 90 C 180 112.674 171.597 133.4 157.739 149.233 L 118.581 96.914 C 122.308 94.772 125.795 92.186 128.953 89.196 C 139.641 79.211 145.828 65.289 146.25 50.664 C 145.828 36.039 139.641 22.118 128.953 12.133 C 126.073 9.407 122.92 7.016 119.565 4.983 Z " fill="rgb(0,37,84)"/><path d=" M 136.119 167.285 C 122.628 175.358 106.852 180 90 180 C 83.238 180 76.65 179.253 70.313 177.836 L 70.313 104.102 L 70.313 104.102 L 80.007 104.102 C 85.536 104.449 90.495 107.072 94.072 111.104 L 136.119 167.285 Z " fill="rgb(0,37,84)"/><path d=" M 92.54 75.977 L 90.422 75.977 L 90 75.977 L 70.313 75.977 L 70.313 25.352 L 83.48 25.352 L 92.54 25.352 C 98.822 25.603 104.853 28.083 109.406 32.383 C 114.609 37.024 117.703 43.633 118.125 50.664 C 117.703 57.696 114.609 64.305 109.406 68.946 C 104.853 73.246 98.822 75.726 92.54 75.977 L 92.54 75.977 Z " fill="rgb(0,37,84)"/></g></svg>