<?xml version="1.0" standalone="no"?><!-- Generator: Gravit.io --><svg xmlns="http://www.w3.org/2000/svg" xmlns:xlink="http://www.w3.org/1999/xlink" style="isolation:isolate" viewBox="0 0 360 360" width="360" height="360"><defs><clipPath id="_clipPath_gyok1A2EavQEhIWFPh6JNJMr8DazTiLJ"><rect width="360" height="360"/></clipPath></defs><g clip-path="url(#_clipPath_gyok1A2EavQEhIWFPh6JNJMr8DazTiLJ)"><g opacity="0.05"><rect x="0" y="0" width="360" height="360" transform="matrix(1,0,0,1,0,0)" fill="rgb(11,12,12)"/></g><rect x="90" y="90" width="180" height="180" transform="matrix(1,0,0,1,0,0)" fill="rgb(255,255,255)"/><path d=" M 132.188 103.754 C 106.852 119.684 90 147.89 90 180 C 90 212.11 106.852 240.316 132.188 256.246 L 132.188 194.102 L 132.188 165.977 L 132.188 115.352 L 132.188 103.754 Z " fill="rgb(8,8,8)"/><path d=" M 209.565 94.983 C 244.735 107.221 270 140.683 270 180 C 270 202.674 261.597 223.4 247.739 239.233 L 208.581 186.914 C 212.308 184.772 215.795 182.186 218.953 179.196 C 229.641 169.211 235.828 155.289 236.25 140.664 C 235.828 126.039 229.641 112.118 218.953 102.133 C 216.073 99.407 212.92 97.016 209.565 94.983 Z " fill="rgb(8,8,8)"/><path d=" M 226.119 257.285 C 212.628 265.358 196.852 270 180 270 C 173.238 270 166.65 269.253 160.313 267.836 L 160.313 194.102 L 160.313 194.102 L 170.007 194.102 C 175.536 194.449 180.495 197.072 184.072 201.104 L 226.119 257.285 Z " fill="rgb(8,8,8)"/><path d=" M 182.54 165.977 L 180.422 165.977 L 180 165.977 L 160.313 165.977 L 160.313 115.352 L 173.48 115.352 L 182.54 115.352 C 188.822 115.603 194.853 118.083 199.406 122.383 C 204.609 127.024 207.703 133.633 208.125 140.664 C 207.703 147.696 204.609 154.305 199.406 158.946 C 194.853 163.246 188.822 165.726 182.54 165.977 L 182.54 165.977 Z " fill="rgb(8,8,8)"/><g opacity="0.1"><path d=" M 156.094 6.877 C 143.426 14.842 135 28.945 135 45 C 135 61.055 143.426 75.158 156.094 83.123 L 156.094 52.051 L 156.094 37.988 L 156.094 12.676 L 156.094 6.877 Z " fill="rgb(8,8,8)"/></g><g opacity="0.1"><path d=" M 194.783 2.492 C 212.367 8.611 225 25.342 225 45 C 225 56.337 220.799 66.7 213.869 74.617 L 194.29 48.457 C 196.154 47.386 197.897 46.093 199.477 44.598 C 204.82 39.606 207.914 32.645 208.125 25.332 C 207.914 18.02 204.82 11.059 199.477 6.067 C 198.036 4.703 196.46 3.508 194.783 2.492 Z " fill="rgb(8,8,8)"/></g><g opacity="0.1"><path d=" M 203.06 83.642 C 196.314 87.679 188.426 90 180 90 C 176.619 90 173.325 89.626 170.156 88.918 L 170.156 52.051 L 170.156 52.051 L 175.004 52.051 C 177.768 52.225 180.247 53.536 182.036 55.552 L 203.06 83.642 Z " fill="rgb(8,8,8)"/></g><g opacity="0.1"><path d=" M 181.27 37.988 L 180.211 37.988 L 180 37.988 L 170.156 37.988 L 170.156 12.676 L 176.74 12.676 L 181.27 12.676 C 184.411 12.802 187.427 14.042 189.703 16.192 C 192.305 18.512 193.852 21.817 194.063 25.332 C 193.852 28.848 192.305 32.153 189.703 34.473 C 187.427 36.623 184.411 37.863 181.27 37.988 L 181.27 37.988 Z " fill="rgb(8,8,8)"/></g><g opacity="0.1"><path d=" M 203.906 353.123 C 216.574 345.158 225 331.055 225 315 C 225 298.945 216.574 284.842 203.906 276.877 L 203.906 307.949 L 203.906 322.012 L 203.906 347.324 L 203.906 353.123 Z " fill="rgb(8,8,8)"/></g><g opacity="0.1"><path d=" M 165.217 357.508 C 147.633 351.389 135 334.658 135 315 C 135 303.663 139.201 293.3 146.131 285.383 L 165.71 311.543 C 163.846 312.614 162.103 313.907 160.523 315.402 C 155.18 320.394 152.086 327.355 151.875 334.668 C 152.086 341.98 155.18 348.941 160.523 353.933 C 161.964 355.297 163.54 356.492 165.217 357.508 Z " fill="rgb(8,8,8)"/></g><g opacity="0.1"><path d=" M 156.94 276.358 C 163.686 272.321 171.574 270 180 270 C 183.381 270 186.675 270.374 189.844 271.082 L 189.844 307.949 L 189.844 307.949 L 184.996 307.949 C 182.232 307.775 179.753 306.464 177.964 304.448 L 156.94 276.358 Z " fill="rgb(8,8,8)"/></g><g opacity="0.1"><path d=" M 178.73 322.012 L 179.789 322.012 L 180 322.012 L 189.844 322.012 L 189.844 347.324 L 183.26 347.324 L 178.73 347.324 C 175.589 347.198 172.573 345.958 170.297 343.808 C 167.695 341.488 166.148 338.183 165.938 334.668 C 166.148 331.152 167.695 327.847 170.297 325.527 C 172.573 323.377 175.589 322.137 178.73 322.012 L 178.73 322.012 Z " fill="rgb(8,8,8)"/></g><g opacity="0.1"><path d=" M 6.877 203.906 C 14.842 216.574 28.945 225 45 225 C 61.055 225 75.158 216.574 83.123 203.906 L 52.051 203.906 L 37.988 203.906 L 12.676 203.906 L 6.877 203.906 Z " fill="rgb(8,8,8)"/></g><g opacity="0.1"><path d=" M 2.492 165.217 C 8.611 147.633 25.342 135 45 135 C 56.337 135 66.7 139.201 74.617 146.131 L 48.457 165.71 C 47.386 163.846 46.093 162.103 44.598 160.523 C 39.606 155.18 32.645 152.086 25.332 151.875 C 18.02 152.086 11.059 155.18 6.067 160.523 C 4.703 161.964 3.508 163.54 2.492 165.217 Z " fill="rgb(8,8,8)"/></g><g opacity="0.1"><path d=" M 83.642 156.94 C 87.679 163.686 90 171.574 90 180 C 90 183.381 89.626 186.675 88.918 189.844 L 52.051 189.844 L 52.051 189.844 L 52.051 184.996 C 52.225 182.232 53.536 179.753 55.552 177.964 L 83.642 156.94 Z " fill="rgb(8,8,8)"/></g><g opacity="0.1"><path d=" M 37.988 178.73 L 37.988 179.789 L 37.988 180 L 37.988 189.844 L 12.676 189.844 L 12.676 183.26 L 12.676 178.73 C 12.802 175.589 14.042 172.573 16.192 170.297 C 18.512 167.695 21.817 166.148 25.332 165.938 C 28.848 166.148 32.153 167.695 34.473 170.297 C 36.623 172.573 37.863 175.589 37.988 178.73 L 37.988 178.73 Z " fill="rgb(8,8,8)"/></g><g opacity="0.1"><path d=" M 353.123 156.094 C 345.158 143.426 331.055 135 315 135 C 298.945 135 284.842 143.426 276.877 156.094 L 307.949 156.094 L 322.012 156.094 L 347.324 156.094 L 353.123 156.094 Z " fill="rgb(8,8,8)"/></g><g opacity="0.1"><path d=" M 357.508 194.783 C 351.389 212.367 334.658 225 315 225 C 303.663 225 293.3 220.799 285.383 213.869 L 311.543 194.29 C 312.614 196.154 313.907 197.897 315.402 199.477 C 320.394 204.82 327.355 207.914 334.668 208.125 C 341.98 207.914 348.941 204.82 353.933 199.477 C 355.297 198.036 356.492 196.46 357.508 194.783 Z " fill="rgb(8,8,8)"/></g><g opacity="0.1"><path d=" M 276.358 203.06 C 272.321 196.314 270 188.426 270 180 C 270 176.619 270.374 173.325 271.082 170.156 L 307.949 170.156 L 307.949 170.156 L 307.949 175.004 C 307.775 177.768 306.464 180.247 304.448 182.036 L 276.358 203.06 Z " fill="rgb(8,8,8)"/></g><g opacity="0.1"><path d=" M 322.012 181.27 L 322.012 180.211 L 322.012 180 L 322.012 170.156 L 347.324 170.156 L 347.324 176.74 L 347.324 181.27 C 347.198 184.411 345.958 187.427 343.808 189.703 C 341.488 192.305 338.183 193.852 334.668 194.063 C 331.152 193.852 327.847 192.305 325.527 189.703 C 323.377 187.427 322.137 184.411 322.012 181.27 L 322.012 181.27 Z " fill="rgb(8,8,8)"/></g></g></svg>