<svg id="Layer_1" data-name="Layer 1" xmlns="http://www.w3.org/2000/svg" viewBox="0 0 283.46 283.46"><defs><style>.cls-1{fill:#50748a;}.cls-2{fill:#1d2b4d;}.cls-3{fill:#fff;}</style></defs><title>Artboard 1</title><circle class="cls-1" cx="141.73" cy="141.73" r="141.73" transform="translate(-58.71 141.73) rotate(-45)"/><path class="cls-1" d="M141.73,283.46A141.73,141.73,0,1,0,0,141.73,141.72,141.72,0,0,0,141.73,283.46"/><path class="cls-2" d="M103.22,45.78v77.75h40.53c24.32,0,47.17-16.58,47.17-38.69,0-26.16-22.85-39.06-47.54-39.06Z"/><path class="cls-2" d="M133.06,169.6H103.22V278.16A142.34,142.34,0,0,0,197.68,272Z"/><path class="cls-3" d="M238,245.79l-54-83.19c32.79-11.8,58.22-39.07,58.22-77.76,0-36.21-18.52-60.72-45.5-73.81A141.9,141.9,0,0,0,52,32V251.44a141.59,141.59,0,0,0,51.23,26.73V169.6h29.84L197.68,272A142.1,142.1,0,0,0,238,245.79Zm-94.2-122.26H103.22V45.78h40.16c24.69,0,47.54,12.9,47.54,39.06C190.92,107,168.07,123.53,143.75,123.53Z"/></svg>